<svg xmlns="http://www.w3.org/2000/svg" viewBox="0 0 64 64" role="img" aria-labelledby="title desc">
  <title id="title">Muhammad Khan monogram icon</title>
  <desc id="desc">Stylised MK initials on a deep blue gradient background</desc>
  <defs>
    <linearGradient id="bg" x1="12%" y1="8%" x2="88%" y2="92%">
      <stop offset="0%" stop-color="#0c1d3d" />
      <stop offset="50%" stop-color="#1b3b6f" />
      <stop offset="100%" stop-color="#1f487e" />
    </linearGradient>
    <linearGradient id="accent" x1="0%" y1="0%" x2="100%" y2="100%">
      <stop offset="0%" stop-color="#ffdf6b" />
      <stop offset="100%" stop-color="#ffb347" />
    </linearGradient>
    <filter id="innerShadow" x="-20%" y="-20%" width="140%" height="140%">
      <feOffset dy="1" />
      <feGaussianBlur stdDeviation="1.5" result="offset-blur" />
      <feComposite operator="out" in="SourceGraphic" in2="offset-blur" result="inverse" />
      <feFlood flood-color="#000" flood-opacity="0.35" result="color" />
      <feComposite operator="in" in="color" in2="inverse" result="shadow" />
      <feComposite operator="over" in="shadow" in2="SourceGraphic" />
    </filter>
  </defs>
  <rect width="64" height="64" rx="16" fill="url(#bg)" />
  <rect x="4" y="4" width="56" height="56" rx="14" fill="none" stroke="rgba(255, 255, 255, 0.25)" stroke-width="2" />
  <g filter="url(#innerShadow)">
    <path d="M22 18v28" fill="none" stroke="url(#accent)" stroke-width="5.5" stroke-linecap="round" />
    <path d="M42 18v28m0-14l12-14m-12 14 12 14" fill="none" stroke="url(#accent)" stroke-width="5.5" stroke-linecap="round" stroke-linejoin="round" />
  </g>
  <circle cx="22" cy="18" r="3.5" fill="#ffefbf" opacity="0.8" />
  <circle cx="54" cy="54" r="4" fill="#0b1324" opacity="0.35" />
</svg>
<svg xmlns="http://www.w3.org/2000/svg" width="512" height="512" viewBox="0 0 512 512">
  <defs>
    <style>
      .stroke { fill: none; stroke: #1C3C48; stroke-width: 24; stroke-linecap: round; stroke-linejoin: round; }
      .fill { fill: #1C3C48; }
    </style>
  </defs>
  <!-- Outer ring -->
  <circle cx="256" cy="256" r="206" class="stroke"/>
  <!-- Inner ring -->
  <circle cx="256" cy="256" r="174" class="stroke"/>
  <!-- Monogram M (rounded) -->
  <path d="M136 336 V176 L196 256 L256 176 V336" class="stroke"/>
  <!-- Monogram k (lowercase) -->
  <path d="M316 336 V196 M316 268 L376 206 M316 268 L384 336" class="stroke"/>
</svg>
